# xmcd CD database file
# Copyright (C) 1997 Ti Kan
#
# Track frame offsets:
#  150
#  3942
#  6205
#  9655
#  12077
#  13975
#  17360
#  18427
#  22927
#  40072
#  51742
#  73707
#  88490
#  105930
#  118160
#  139050
#  155210
#  169545
#  187425
#  201562
#  217965
#  233875
#  246570
#  264757
#  282597
#  298287
#  309145
#  321762
#  337800
#
# Disc length: 4537 seconds
#
# Revision: 1
# Processed by: cddbd v1.4b41PL1 Copyright (c) Steve Scherf et al.
# Submitted via: CDWizzard Release:4.32
#
DISCID=9f11b71d
DTITLE=Noel Coward - The Noel Coward Album
DYEAR=1900
DGENRE=
TTITLE0=Medley: I'll see you again
TTITLE1=Medley: Dance, Little Lady
TTITLE2=Medley: Poor little rich girl
TTITLE3=Medley: A room with a view
TTITLE4=Medley: Someday I'll find you
TTITLE5=Medley: I'll follow my secret heart
TTITLE6=Medley: If love were all
TTITLE7=Medley: Play, Orchestra Play
TTITLE8=Uncle Harry
TTITLE9=Loch Lomond
TTITLE10=A bar on the Piccola Marina
TTITLE11=World Weary
TTITLE12=Nina
TTITLE13=Mad dogs and Englishmen
TTITLE14=Matelot
TTITLE15=Alice is at it again
TTITLE16=A room with a view
TTITLE17=Lets do it
TTITLE18=I like America 
TTITLE19=Louisa
TTITLE20=Half-Caste Woman
TTITLE21=I went to a marvellous party
TTITLE22=Time and again
TTITLE23=Why must the show go on
TTITLE24=Whats going to happen to the tots?
TTITLE25=Sail Away
TTITLE26=Wait a bit, Joe
TTITLE27=Twentieth Century Blues
TTITLE28=The Party's Over Now
EXTD=
EXTT0=
EXTT1=
EXTT2=
EXTT3=
EXTT4=
EXTT5=
EXTT6=
EXTT7=
EXTT8=
EXTT9=
EXTT10=
EXTT11=
EXTT12=
EXTT13=
EXTT14=
EXTT15=
EXTT16=
EXTT17=
EXTT18=
EXTT19=
EXTT20=
EXTT21=
EXTT22=
EXTT23=
EXTT24=
EXTT25=
EXTT26=
EXTT27=
EXTT28=
PLAYORDER=
